<svg xmlns="http://www.w3.org/2000/svg" viewBox="0 0 512 512">
  <rect width="512" height="512" rx="112" fill="#0d1117"/>
  <circle cx="256" cy="256" r="184" fill="#123020"/>
  <circle cx="256" cy="256" r="146" fill="#16a34a"/>
  <path fill="#f8fafc" d="M292 157c-14-9-33-14-58-14-52 0-86 27-86 68 0 39 28 58 82 72 38 10 53 19 53 38 0 18-17 30-45 30-29 0-54-8-75-25l-27 44c24 21 60 33 101 33 57 0 95-28 95-73 0-40-27-61-85-76-37-10-50-17-50-34 0-16 14-26 37-26 24 0 43 6 60 18l-2-55Z"/>
  <path fill="#0d1117" d="M246 109h39v58h-39zM228 345h39v58h-39z"/>
</svg>
